<svg id="Group_247" data-name="Group 247" xmlns="http://www.w3.org/2000/svg" xmlns:xlink="http://www.w3.org/1999/xlink" width="106.832" height="106.809" viewBox="0 0 106.832 106.809">
  <defs>
    <clipPath id="clip-path">
      <rect id="Rectangle_272" data-name="Rectangle 272" width="106.832" height="106.809" fill="none"/>
    </clipPath>
  </defs>
  <g id="Group_246" data-name="Group 246" clip-path="url(#clip-path)">
    <path id="Path_796" data-name="Path 796" d="M228.179,256.488c.014,2.952.037,5.9.039,8.855.006,7.4-.04,14.8.03,22.2.018,1.932-.528,3.372-2.309,4.232h-34.42q0-17.624-.009-35.248l.054-.054,36.615.019" transform="translate(-138.115 -184.962)" fill="#face67"/>
    <path id="Path_797" data-name="Path 797" d="M96.588,256.616q0,17.624.009,35.248H62.385c-1.873-.73-2.5-2.137-2.493-4.093.045-9.975.02-19.95.023-29.926,0-.416.031-.832.047-1.248l36.627.018" transform="translate(-43.193 -185.055)" fill="#fedd90"/>
    <path id="Path_798" data-name="Path 798" d="M53.4,201.517,16.768,201.5c-.284-.3-.56-.616-.853-.91Q8.886,193.555,1.847,186.53A9.885,9.885,0,0,1,0,184.193v-1.669c.826-1.812,2.249-2.339,4.2-2.326,10.552.067,21.1.047,31.657.013a4.566,4.566,0,0,1,3.513,1.438c4.338,4.4,8.724,8.752,13.1,13.115.286.286.5.677.96.753q.012,2.973.024,5.946Z" transform="translate(0 -129.956)" fill="#feb878"/>
    <path id="Path_799" data-name="Path 799" d="M191.641,201.489q-.012-2.973-.024-5.946c.311-.274.639-.531.932-.824q6.528-6.518,13.038-13.053a4.46,4.46,0,0,1,3.41-1.433q16.207.058,32.414.008a3.2,3.2,0,0,1,3.351,1.942,3.231,3.231,0,0,1-.974,3.761q-7.781,7.767-15.533,15.563l-36.615-.019" transform="translate(-138.192 -129.982)" fill="#f89f4e"/>
    <path id="Path_800" data-name="Path 800" d="M104.015,75.053a3.7,3.7,0,0,1-1.124,3.233,2.767,2.767,0,0,1-3.067.678,3.207,3.207,0,0,1-2.131-3.046,75.01,75.01,0,0,0-2.323-17.2,31.481,31.481,0,0,0-4.985-11.23c-2.478-3.292-5.709-5.355-9.982-5.243a9.1,9.1,0,0,0-6.23,2.178,6.4,6.4,0,0,0-2.049,6.121c.792,4.271,3.847,6.36,7.577,7.753a24.48,24.48,0,0,0,7.223,1.223c2.171.126,3.732,1.365,3.662,3.113A3.375,3.375,0,0,1,86.7,65.778a37.165,37.165,0,0,1-7.263-1.033c-4.589-1.3-8.6-3.469-11.33-7.551a13.5,13.5,0,0,1,.519-16,14.239,14.239,0,0,1,9.7-5.05A18.045,18.045,0,0,1,86.6,37a17.357,17.357,0,0,1,7.734,5.411c4.046,4.777,6.074,10.493,7.507,16.457a64.841,64.841,0,0,1,1.7,10.823c.12,1.791.316,3.576.478,5.364" transform="translate(-47.409 -25.955)" fill="#bdebfa"/>
    <path id="Path_801" data-name="Path 801" d="M246.068,30.284a16.318,16.318,0,0,1-4.709,10.157c-4.169,4.4-9.441,6.509-15.29,7.515-1.847.318-3.71.326-5.559.567a3.518,3.518,0,0,1-4.152-2.46,3.03,3.03,0,0,1,2.81-3.78c4.159-.156,8.277-.527,12.148-2.269,4.429-1.992,7.682-5.032,8.418-10.02a8.971,8.971,0,0,0-3.257-8.349A14.174,14.174,0,0,0,228.5,18.47a22.533,22.533,0,0,0-2.376-.168,3.293,3.293,0,0,1-3.187-2.979,3.088,3.088,0,0,1,3.007-3.248c6.268-.058,11.955,1.564,16.248,6.45,2.354,2.679,3.91,6.233,3.872,11.76" transform="translate(-155.956 -8.707)" fill="#bdebfa"/>
    <path id="Path_802" data-name="Path 802" d="M193.264,3.04a3.188,3.188,0,0,1-.947,2.346c-1.048,1.066-2.094,2.134-3.173,3.169a3.118,3.118,0,0,1-4.713-.021q-1.579-1.517-3.1-3.1a3.134,3.134,0,1,1,4.43-4.425,1.516,1.516,0,0,1,.22.222c.558.805,1.014.669,1.66,0,1.8-1.864,4.38-1.544,5.343.6a2.54,2.54,0,0,1,.277,1.21" transform="translate(-130.042 0)" fill="#173041"/>
  </g>
</svg>
