<svg id="svg" version="1.1" xmlns="http://www.w3.org/2000/svg" xmlns:xlink="http://www.w3.org/1999/xlink" width="400" height="432" viewBox="0, 0, 400,432"><g id="svgg"><path id="path0" d="M183.000 26.388 C 67.758 33.614,-8.825 147.211,28.205 256.000 C 49.337 318.084,104.662 363.671,169.200 372.179 C 171.950 372.541,175.280 373.003,176.600 373.204 C 177.920 373.406,182.780 373.622,187.400 373.685 C 209.495 373.987,214.556 373.635,212.271 371.958 C 212.089 371.825,213.169 371.597,214.671 371.451 C 240.262 368.966,272.138 356.247,294.800 339.478 C 376.016 279.383,389.310 164.518,323.950 87.601 C 312.683 74.342,294.813 59.153,282.021 51.964 C 281.147 51.473,280.525 50.922,280.637 50.740 C 280.750 50.558,280.607 50.499,280.320 50.609 C 280.033 50.719,279.560 50.429,279.270 49.963 C 278.979 49.497,278.934 49.236,279.170 49.382 C 279.407 49.528,279.600 49.391,279.600 49.078 C 279.600 48.764,278.748 48.194,277.700 47.807 C 276.655 47.421,272.819 45.697,269.176 43.975 C 241.090 30.699,211.278 24.615,183.000 26.388 M210.400 36.964 C 305.438 47.608,371.063 136.079,353.777 230.255 C 336.770 322.904,243.416 382.316,151.800 358.795 C 138.649 355.418,116.669 346.639,115.316 344.222 C 115.132 343.893,112.196 341.951,108.791 339.905 C 4.250 277.095,3.078 125.938,106.629 61.299 C 113.732 56.865,129.989 48.800,131.823 48.800 C 132.172 48.800,133.210 48.371,134.129 47.846 C 135.048 47.322,137.420 46.407,139.400 45.814 C 141.380 45.221,143.450 44.547,144.000 44.316 C 145.615 43.640,150.437 42.371,152.600 42.054 C 153.700 41.892,154.993 41.544,155.474 41.280 C 155.954 41.016,157.309 40.800,158.485 40.800 C 159.674 40.800,160.978 40.550,161.425 40.237 C 161.867 39.928,163.122 39.541,164.214 39.377 C 165.306 39.213,166.380 38.836,166.600 38.539 C 167.037 37.949,173.061 37.011,180.200 36.420 C 186.283 35.917,203.877 36.234,210.400 36.964 M144.299 151.899 L 136.400 159.797 156.499 179.899 L 176.597 200.000 156.497 220.103 L 136.398 240.205 144.400 248.200 L 152.402 256.195 172.303 236.297 C 183.248 225.354,192.383 216.400,192.603 216.400 C 192.823 216.400,201.912 225.310,212.800 236.200 C 223.689 247.091,232.743 255.952,232.920 255.893 C 233.098 255.834,236.749 252.285,241.034 248.007 L 248.825 240.228 228.714 220.114 L 208.603 200.000 228.714 179.886 L 248.825 159.772 241.034 151.993 C 236.749 147.715,233.098 144.166,232.920 144.107 C 232.743 144.048,223.689 152.909,212.800 163.800 C 201.912 174.690,192.822 183.600,192.600 183.600 C 192.378 183.600,183.288 174.690,172.400 163.800 C 161.512 152.910,152.512 144.000,152.400 144.000 C 152.289 144.000,148.643 147.554,144.299 151.899 " stroke="none" fill="#050404" fill-rule="evenodd"></path><path id="path1" d="M186.600 37.250 C 183.740 37.678,178.520 38.691,175.000 39.500 C 171.480 40.309,167.913 40.935,167.073 40.892 C 161.670 40.616,135.653 51.733,122.800 59.809 C 33.985 115.619,15.659 236.057,84.030 314.600 C 93.478 325.454,113.019 342.671,116.299 343.031 C 116.807 343.086,118.882 344.200,120.911 345.506 C 127.721 349.889,131.775 352.096,135.600 353.503 C 195.949 375.704,263.117 360.975,308.401 315.612 C 384.912 238.969,367.305 110.788,272.912 57.246 C 246.350 42.179,209.970 33.751,186.600 37.250 M281.525 49.887 C 281.727 50.279,281.824 50.785,281.742 51.011 C 281.548 51.545,283.875 52.924,284.411 52.593 C 284.636 52.454,284.770 52.520,284.710 52.740 C 284.649 52.959,286.986 54.765,289.901 56.753 C 351.855 98.988,379.708 176.224,358.942 248.200 C 340.450 312.295,285.191 360.997,219.600 371.010 C 214.147 371.842,213.941 371.893,215.600 371.985 C 216.370 372.028,216.785 372.151,216.522 372.257 C 214.429 373.109,217.654 373.924,220.354 373.226 C 221.149 373.020,224.320 372.645,227.400 372.391 C 326.152 364.262,397.345 269.149,377.994 171.200 C 367.760 119.395,334.466 75.852,286.879 52.037 C 283.029 50.110,281.278 49.407,281.525 49.887 M279.596 50.196 C 279.868 50.523,280.250 50.693,280.445 50.572 C 280.640 50.451,280.800 50.554,280.800 50.800 C 280.800 51.046,280.981 51.135,281.203 50.998 C 281.745 50.663,280.662 49.600,279.780 49.600 C 279.225 49.600,279.192 49.708,279.596 50.196 M172.600 163.600 L 192.597 183.600 212.697 163.503 L 232.798 143.405 241.000 151.600 L 249.202 159.795 229.103 179.897 L 209.003 200.000 229.103 220.103 L 249.202 240.205 241.000 248.400 L 232.798 256.595 212.698 236.498 L 192.598 216.401 172.501 236.498 L 152.403 256.596 144.200 248.400 L 135.998 240.205 156.097 220.103 L 176.197 200.000 156.099 179.899 L 136.000 159.797 144.099 151.699 C 148.553 147.244,152.289 143.600,152.400 143.600 C 152.512 143.600,161.602 152.600,172.600 163.600 " stroke="none" fill="#ec1b24" fill-rule="evenodd"></path><path id="path2" d="M183.800 36.415 C 171.968 37.031,165.723 38.103,166.751 39.341 C 167.013 39.657,167.177 40.160,167.114 40.458 C 166.953 41.221,167.725 41.126,175.000 39.480 C 178.520 38.684,184.010 37.660,187.200 37.204 C 195.898 35.961,195.277 35.817,183.800 36.415 M116.244 343.130 C 115.536 344.274,116.686 345.201,121.933 347.719 C 127.225 350.259,130.260 351.600,130.719 351.600 C 130.841 351.600,128.868 350.368,126.334 348.863 C 123.800 347.358,120.934 345.584,119.964 344.922 C 117.484 343.229,116.481 342.746,116.244 343.130 " stroke="none" fill="#eeeae9" fill-rule="evenodd"></path><path id="path3" d="M185.305 36.287 C 185.914 36.379,186.814 36.377,187.305 36.282 C 187.797 36.187,187.300 36.111,186.200 36.114 C 185.100 36.117,184.697 36.195,185.305 36.287 M197.107 36.290 C 197.826 36.379,198.906 36.377,199.507 36.286 C 200.108 36.195,199.520 36.122,198.200 36.124 C 196.880 36.126,196.388 36.201,197.107 36.290 M315.200 78.200 C 317.281 80.290,319.074 82.000,319.184 82.000 C 319.294 82.000,317.681 80.290,315.600 78.200 C 313.519 76.110,311.726 74.400,311.616 74.400 C 311.506 74.400,313.119 76.110,315.200 78.200 M304.800 80.525 C 304.800 80.594,305.385 81.179,306.100 81.825 L 307.400 83.000 306.225 81.700 C 305.130 80.488,304.800 80.216,304.800 80.525 M308.800 84.600 C 309.546 85.370,310.247 86.000,310.357 86.000 C 310.467 86.000,309.946 85.370,309.200 84.600 C 308.454 83.830,307.753 83.200,307.643 83.200 C 307.533 83.200,308.054 83.830,308.800 84.600 M144.099 151.699 L 136.000 159.797 156.099 179.899 L 176.197 200.000 156.097 220.103 L 135.998 240.205 144.200 248.400 L 152.403 256.596 172.502 236.398 L 192.600 216.201 172.501 236.198 L 152.402 256.195 144.400 248.200 L 136.398 240.205 156.497 220.103 L 176.597 200.000 156.497 179.897 L 136.398 159.795 144.400 151.800 L 152.402 143.805 172.501 163.803 L 192.600 183.800 172.602 163.700 C 161.602 152.645,152.512 143.600,152.400 143.600 C 152.289 143.600,148.553 147.244,144.099 151.699 M212.598 163.700 L 192.600 183.800 212.692 163.809 L 232.785 143.818 234.692 145.609 L 236.600 147.400 234.817 145.500 C 233.836 144.455,232.935 143.600,232.815 143.600 C 232.695 143.600,223.598 152.645,212.598 163.700 M238.000 149.000 C 238.746 149.770,239.447 150.400,239.557 150.400 C 239.667 150.400,239.146 149.770,238.400 149.000 C 237.654 148.230,236.953 147.600,236.843 147.600 C 236.733 147.600,237.254 148.230,238.000 149.000 M241.200 152.200 C 241.946 152.970,242.647 153.600,242.757 153.600 C 242.867 153.600,242.346 152.970,241.600 152.200 C 240.854 151.430,240.153 150.800,240.043 150.800 C 239.933 150.800,240.454 151.430,241.200 152.200 M244.400 155.400 C 245.146 156.170,245.847 156.800,245.957 156.800 C 246.067 156.800,245.546 156.170,244.800 155.400 C 244.054 154.630,243.353 154.000,243.243 154.000 C 243.133 154.000,243.654 154.630,244.400 155.400 M247.503 158.403 L 248.806 159.791 228.705 179.895 L 208.603 200.000 228.705 220.105 L 248.806 240.209 247.503 241.597 L 246.200 242.986 247.710 241.604 L 249.220 240.223 229.112 220.112 L 209.003 200.000 229.112 179.888 L 249.220 159.777 247.710 158.396 L 246.200 157.014 247.503 158.403 M356.093 190.000 C 356.093 190.770,356.175 191.085,356.276 190.700 C 356.376 190.315,356.376 189.685,356.276 189.300 C 356.175 188.915,356.093 189.230,356.093 190.000 M365.309 192.000 C 365.309 192.990,365.387 193.395,365.482 192.900 C 365.578 192.405,365.578 191.595,365.482 191.100 C 365.387 190.605,365.309 191.010,365.309 192.000 M365.309 208.000 C 365.309 208.990,365.387 209.395,365.482 208.900 C 365.578 208.405,365.578 207.595,365.482 207.100 C 365.387 206.605,365.309 207.010,365.309 208.000 M356.093 210.000 C 356.093 210.770,356.175 211.085,356.276 210.700 C 356.376 210.315,356.376 209.685,356.276 209.300 C 356.175 208.915,356.093 209.230,356.093 210.000 M212.698 236.398 L 232.795 256.594 234.698 254.603 L 236.600 252.612 234.692 254.397 L 232.785 256.182 212.692 236.191 L 192.600 216.201 212.698 236.398 M244.378 244.700 L 243.000 246.200 244.500 244.822 C 245.896 243.538,246.184 243.200,245.878 243.200 C 245.812 243.200,245.137 243.875,244.378 244.700 M241.178 247.900 L 239.800 249.400 241.300 248.022 C 242.696 246.738,242.984 246.400,242.678 246.400 C 242.612 246.400,241.937 247.075,241.178 247.900 M237.978 251.100 L 236.600 252.600 238.100 251.222 C 239.496 249.938,239.784 249.600,239.478 249.600 C 239.412 249.600,238.737 250.275,237.978 251.100 M308.778 315.500 L 307.400 317.000 308.900 315.622 C 309.725 314.863,310.400 314.188,310.400 314.122 C 310.400 313.816,310.062 314.104,308.778 315.500 M315.178 321.900 L 313.800 323.400 315.300 322.022 C 316.696 320.738,316.984 320.400,316.678 320.400 C 316.612 320.400,315.937 321.075,315.178 321.900 M115.200 343.964 C 115.200 344.150,115.470 344.526,115.800 344.800 C 116.288 345.205,116.400 345.185,116.400 344.692 C 116.400 344.358,116.130 343.982,115.800 343.855 C 115.470 343.729,115.200 343.777,115.200 343.964 M204.500 363.476 C 204.885 363.576,205.515 363.576,205.900 363.476 C 206.285 363.375,205.970 363.293,205.200 363.293 C 204.430 363.293,204.115 363.375,204.500 363.476 M188.880 363.898 C 190.794 363.971,194.034 363.971,196.080 363.898 C 198.126 363.826,196.560 363.766,192.600 363.765 C 188.640 363.765,186.966 363.824,188.880 363.898 M212.278 371.857 C 212.540 371.964,212.663 372.292,212.550 372.585 C 212.256 373.352,213.072 373.721,214.323 373.388 C 215.054 373.194,215.209 373.032,214.807 372.886 C 214.481 372.768,213.973 372.430,213.679 372.136 C 213.384 371.841,212.841 371.614,212.471 371.632 C 212.093 371.649,212.008 371.748,212.278 371.857 " stroke="none" fill="#881017" fill-rule="evenodd"></path><path id="path4" d="M194.100 36.276 C 194.485 36.376,195.115 36.376,195.500 36.276 C 195.885 36.175,195.570 36.093,194.800 36.093 C 194.030 36.093,193.715 36.175,194.100 36.276 M279.600 49.237 C 279.600 49.437,279.793 49.600,280.029 49.600 C 280.668 49.600,281.604 50.658,281.281 51.017 C 281.126 51.188,281.225 51.198,281.501 51.040 C 281.853 50.837,281.886 50.535,281.614 50.026 C 281.201 49.254,279.600 48.627,279.600 49.237 M309.200 72.125 C 309.200 72.194,309.785 72.779,310.500 73.425 L 311.800 74.600 310.625 73.300 C 309.530 72.088,309.200 71.816,309.200 72.125 M356.093 192.400 C 356.093 193.170,356.175 193.485,356.276 193.100 C 356.376 192.715,356.376 192.085,356.276 191.700 C 356.175 191.315,356.093 191.630,356.093 192.400 M356.093 207.600 C 356.093 208.370,356.175 208.685,356.276 208.300 C 356.376 207.915,356.376 207.285,356.276 206.900 C 356.175 206.515,356.093 206.830,356.093 207.600 M213.743 372.200 C 214.073 372.530,214.581 372.803,214.871 372.806 C 215.262 372.811,215.243 372.914,214.800 373.200 C 214.335 373.500,214.458 373.589,215.343 373.594 C 216.173 373.598,216.425 373.443,216.265 373.026 C 216.144 372.710,216.260 372.352,216.522 372.231 C 216.785 372.109,216.415 372.112,215.700 372.236 C 214.896 372.377,214.400 372.299,214.400 372.032 C 214.400 371.794,214.117 371.600,213.771 371.600 C 213.213 371.600,213.210 371.667,213.743 372.200 " stroke="none" fill="#b6151d" fill-rule="evenodd"></path></g></svg>